<svg xmlns="http://www.w3.org/2000/svg" width="108" height="35.01" viewBox="0 0 108 35.01">
  <g id="グループ_9" data-name="グループ 9" transform="translate(-358.143 -357.303)">
    <g id="グループ_2" data-name="グループ 2" transform="translate(358.143 370.838)">
      <g id="グループ_1" data-name="グループ 1">
        <path id="パス_1" data-name="パス 1" d="M358.143,396.625a6.976,6.976,0,0,1,6.9-7.3c2.508,0,4.326,1.254,4.326,2.884a1.4,1.4,0,0,1-1.254,1.379,1.13,1.13,0,0,1-1.223-1.129c0-.972.627-1.191.627-1.442,0-.407-1.1-1.442-2.508-1.442-2.57,0-4.953,2.54-4.953,6.114,0,3.762,2.225,6.458,5.015,6.458a4.586,4.586,0,0,0,4.358-2.57l.283.094c-1.286,2.225-2.916,3.7-5.424,3.7C360.9,403.365,358.143,400.325,358.143,396.625Z" transform="translate(-358.143 -381.891)" fill="#7c7580"/>
        <path id="パス_2" data-name="パス 2" d="M376.575,398.922l.533-.032c.94-.062,1.285-.062,1.285-.439V381.3c0-1.693-.156-2.07-1.254-2.226l-.721-.063.032-.125,3.7-.878v10.377c1.223-1.035,3.135-2.947,5.392-2.947a3.05,3.05,0,0,1,2.225.846,3.882,3.882,0,0,1,1,2.884v9.311c0,.188,0,.345,1.568.407l.47.032.094.188H385.07l.094-.188.564-.032c1.16-.062,1.317-.188,1.317-.439v-8.84c0-1.849-.972-2.853-2.7-2.853a6.224,6.224,0,0,0-4.2,1.975v9.781c0,.25.188.282,1.6.376l.439.032.095.188h-5.8Z" transform="translate(-364.411 -378.012)" fill="#7c7580"/>
        <path id="パス_3" data-name="パス 3" d="M399.513,396.437a6.974,6.974,0,0,1,6.834-7.116,6.8,6.8,0,0,1,6.772,6.928,6.9,6.9,0,0,1-6.772,7.117A6.811,6.811,0,0,1,399.513,396.437Zm11.5.156c0-2.382-.533-4.545-1.755-5.768a4.047,4.047,0,0,0-2.978-1.254c-2.633,0-4.734,2.79-4.734,6.4,0,2.571.69,4.859,1.943,6.113a4.108,4.108,0,0,0,2.884,1.1C408.949,403.177,411.017,400.293,411.017,396.594Z" transform="translate(-372.395 -381.891)" fill="#7c7580"/>
        <path id="パス_4" data-name="パス 4" d="M422.034,396.625a6.976,6.976,0,0,1,6.9-7.3c2.508,0,4.326,1.254,4.326,2.884A1.4,1.4,0,0,1,432,393.584a1.13,1.13,0,0,1-1.223-1.129c0-.972.627-1.191.627-1.442,0-.407-1.1-1.442-2.508-1.442-2.57,0-4.953,2.54-4.953,6.114,0,3.762,2.227,6.458,5.016,6.458a4.586,4.586,0,0,0,4.357-2.57l.283.094c-1.286,2.225-2.916,3.7-5.424,3.7C424.793,403.365,422.034,400.325,422.034,396.625Z" transform="translate(-380.152 -381.891)" fill="#7c7580"/>
        <path id="パス_5" data-name="パス 5" d="M441.073,396.437a6.974,6.974,0,0,1,6.834-7.116,6.8,6.8,0,0,1,6.772,6.928,6.9,6.9,0,0,1-6.772,7.117A6.811,6.811,0,0,1,441.073,396.437Zm11.5.156c0-2.382-.533-4.545-1.755-5.768a4.046,4.046,0,0,0-2.978-1.254c-2.633,0-4.734,2.79-4.734,6.4,0,2.571.69,4.859,1.943,6.113a4.108,4.108,0,0,0,2.884,1.1C450.509,403.177,452.577,400.293,452.577,396.594Z" transform="translate(-386.713 -381.891)" fill="#7c7580"/>
        <path id="パス_6" data-name="パス 6" d="M463.194,398.922l.533-.032c.972-.062,1.317-.062,1.317-.439v-16.9c0-1.944-.157-2.321-1.285-2.477l-.69-.063.032-.125,3.7-.878v20.5c0,.25.125.313,1.568.376l.439.032.094.188h-5.768Z" transform="translate(-394.279 -378.012)" fill="#7c7580"/>
        <path id="パス_7" data-name="パス 7" d="M480.507,401.265V401.2c-1.285,1.1-2.664,2.037-4.044,2.037a2.829,2.829,0,0,1-3.041-2.821c0-2.069,1.693-3.449,7.3-4.922l.063-1.849c.156-3.167-1.63-3.731-2.978-3.731-1.38,0-2.853.972-2.853,1.411,0,.219.752.564.752,1.379a1.158,1.158,0,0,1-1.191,1.129,1.088,1.088,0,0,1-1.191-1.191c0-1.442,3.386-3.323,5.643-3.323,2.225,0,3.667.878,3.51,4.138l-.313,7.587c-.063,1,.345,1.191.972,1.191a2.436,2.436,0,0,0,1.505-.94l.156.094c-.6.658-1.348,1.88-2.539,1.88A1.944,1.944,0,0,1,480.507,401.265Zm.063-.439.156-5.016c-4.89,1.222-5.486,2.6-5.486,4.138a2.048,2.048,0,0,0,2.226,2.288A5.011,5.011,0,0,0,480.57,400.826Z" transform="translate(-397.821 -381.891)" fill="#7c7580"/>
        <path id="パス_8" data-name="パス 8" d="M493.13,399.412l.219-9.906-2.413-.031.313-.941h2.131l.062-2.7h1.725l-.032,2.727h4.232l-.314.94h-3.918l-.219,9.562a1.79,1.79,0,0,0,1.849,2.132c1.223,0,1.913-.847,2.7-1.474l.188.063c-1.254,1.254-2.226,2.382-3.888,2.382C494.791,402.171,493.1,401.888,493.13,399.412Z" transform="translate(-403.909 -380.696)" fill="#7c7580"/>
        <path id="パス_9" data-name="パス 9" d="M505.25,396.625c0-3.949,2.508-7.3,6.427-7.3,3.135,0,4.828,2.1,4.828,4.232a3.888,3.888,0,0,1-.062.47l-9.123-.032a14.754,14.754,0,0,0-.156,1.724c0,3.763,2.226,6.427,5.016,6.427a4.736,4.736,0,0,0,4.42-2.57l.219.094c-1.317,2.225-2.884,3.7-5.392,3.7C508.009,403.365,505.25,400.325,505.25,396.625Zm9.217-2.978c0-2.194-1-4.013-2.978-4.013-1.725,0-3.48,1.693-4.107,4.044Z" transform="translate(-408.818 -381.891)" fill="#7c7580"/>
      </g>
    </g>
    <g id="グループ_3" data-name="グループ 3" transform="translate(358.519 357.303)">
      <path id="パス_10" data-name="パス 10" d="M363.167,376.708l1.567-.125c1.1-.094,1.505-.282,1.505-.47V357.554h-2.665c-1.943.188-3.229,1.912-4.42,4.075l-.219.408h-.219l1.411-4.734H374.7l1.035,4.734h-.189l-.188-.408c-1.38-3.072-2.414-3.887-4.514-4.075h-2.57v18.652c0,.219.188.283,1.818.408l1.222.094.095.188h-8.339Z" transform="translate(-358.715 -357.303)" fill="#7c7580"/>
      <path id="パス_11" data-name="パス 11" d="M387.439,376.708l1.129-.125c1.1-.094,1.505-.282,1.505-.47V357.993c0-.219-.189-.283-1.819-.408l-.784-.094-.094-.188h7.587l-.094.188-1.254.125c-1.1.094-1.5.282-1.5.47v8.684h11.035v-8.778c0-.219-.189-.283-1.819-.408l-.909-.094-.094-.188h7.587l-.094.188-1.129.125c-1.1.094-1.5.282-1.5.47v18.119c0,.219.188.283,1.818.408l.784.094.094.188h-7.587l.094-.188,1.254-.125c1.1-.094,1.505-.282,1.505-.47v-9.028H392.11v9.122c0,.219.188.283,1.818.408l.909.094.094.188h-7.587Z" transform="translate(-368.535 -357.303)" fill="#7c7580"/>
      <path id="パス_12" data-name="パス 12" d="M420.841,376.708l1.254-.125c1.1-.094,1.505-.282,1.505-.47V357.993c0-.219-.189-.283-1.819-.408l-.909-.094-.094-.188H434.7l.753,5.047-.125-.032-.219-.439c-1.223-3.2-2.445-4.326-4.546-4.326h-4.922v8.778h3.637c2.351-.094,2.6-.5,3.135-2.383l.156-.407.157.032-.6,5.956-.156-.031-.032-.345c-.157-2.163-.282-2.382-2.884-2.445l-3.417-.062v9.843l5.236.125c3.041-.063,4.326-1.975,5.485-4.765l.189-.439.188.032-1.442,5.455H420.747Z" transform="translate(-379.991 -357.303)" fill="#7c7580"/>
    </g>
  </g>
</svg>
